
<global>
ampeg_release=0.65
</global>

<group>
group_label=RR1
seq_length=4
seq_position=1

<region>
hivel=42
key=G4
lovel=0
sample=Trombone_staccato_PP_G3_RR1.opus
tune=-20
</region>

<region>
hivel=42
key=G3
lovel=0
offset=935
sample=Trombone_staccato_PP_G2_RR1.opus
tune=-4
</region>

<region>
hivel=42
key=G2
lovel=0
sample=Trombone_staccato_PP_G1_RR1.opus
tune=-8
</region>

<region>
hivel=42
key=G#4
lovel=0
offset=489
sample=Trombone_staccato_PP_G#3_RR1.opus
tune=-25
</region>

<region>
hivel=42
key=G#3
lovel=0
offset=456
sample=Trombone_staccato_PP_G#2_RR1.opus
tune=-2
</region>

<region>
hivel=42
key=G#2
lovel=0
offset=854
sample=Trombone_staccato_PP_G#1_RR1.opus
tune=-14
</region>

<region>
hivel=42
key=F4
lovel=0
offset=835
sample=Trombone_staccato_PP_F3_RR1.opus
tune=-28
</region>

<region>
hivel=42
key=F3
lovel=0
offset=1710
sample=Trombone_staccato_PP_F2_RR1.opus
tune=-25
</region>

<region>
hivel=42
key=F2
lovel=0
sample=Trombone_staccato_PP_F1_RR1.opus
tune=-6
</region>

<region>
hivel=42
key=F#4
lovel=0
sample=Trombone_staccato_PP_F#3_RR1.opus
tune=-33
</region>

<region>
hivel=42
key=F#3
lovel=0
offset=826
sample=Trombone_staccato_PP_F#2_RR1.opus
tune=+3
</region>

<region>
hivel=42
key=F#2
lovel=0
offset=2064
sample=Trombone_staccato_PP_F#1_RR1.opus
tune=-7
</region>

<region>
hivel=42
key=E4
lovel=0
offset=169
sample=Trombone_staccato_PP_E3_RR1.opus
tune=-11
</region>

<region>
hivel=42
key=E3
lovel=0
offset=1406
sample=Trombone_staccato_PP_E2_RR1.opus
tune=-15
</region>

<region>
hikey=E2
hivel=42
lokey=C1
lovel=0
offset=4419
pitch_keycenter=E2
sample=Trombone_staccato_PP_E1_RR1.opus
tune=-8
</region>

<region>
hivel=42
key=D4
lovel=0
offset=516
sample=Trombone_staccato_PP_D3_RR1.opus
tune=-23
</region>

<region>
hivel=42
key=D3
lovel=0
sample=Trombone_staccato_PP_D2_RR1.opus
tune=-16
</region>

<region>
hivel=42
key=D#4
lovel=0
offset=507
sample=Trombone_staccato_PP_D#3_RR1.opus
tune=-25
</region>

<region>
hivel=42
key=D#3
lovel=0
offset=454
sample=Trombone_staccato_PP_D#2_RR1.opus
tune=-5
</region>

<region>
hikey=D#5
hivel=42
lokey=C5
lovel=0
offset=911
pitch_keycenter=C5
sample=Trombone_staccato_PP_C4_RR1.opus
tune=-21
</region>

<region>
hikey=C4
hivel=42
lokey=C4
lovel=0
offset=770
sample=Trombone_staccato_PP_C3_RR1.opus
tune=-22
</region>

<region>
hivel=42
key=C3
lovel=0
offset=244
sample=Trombone_staccato_PP_C2_RR1.opus
tune=+15
</region>

<region>
hivel=42
key=C#4
lovel=0
offset=1581
sample=Trombone_staccato_PP_C#3_RR1.opus
tune=-13
</region>

<region>
hivel=42
key=C#3
lovel=0
offset=3580
sample=Trombone_staccato_PP_C#2_RR1.opus
tune=+3
</region>

<region>
hivel=42
key=B4
lovel=0
offset=1286
sample=Trombone_staccato_PP_B3_RR1.opus
tune=-14
</region>

<region>
hivel=42
key=B3
lovel=0
offset=1129
sample=Trombone_staccato_PP_B2_RR1.opus
tune=+5
</region>

<region>
hivel=42
key=B2
lovel=0
offset=362
sample=Trombone_staccato_PP_B1_RR1.opus
tune=-2
</region>

<region>
hivel=42
key=A4
lovel=0
offset=225
sample=Trombone_staccato_PP_A3_RR1.opus
tune=-18
</region>

<region>
hivel=42
key=A3
lovel=0
offset=605
sample=Trombone_staccato_PP_A2_RR1.opus
tune=-12
</region>

<region>
hivel=42
key=A2
lovel=0
sample=Trombone_staccato_PP_A1_RR1.opus
tune=-12
</region>

<region>
hivel=42
key=A#4
lovel=0
offset=314
sample=Trombone_staccato_PP_A#3_RR1.opus
tune=-27
</region>

<region>
hivel=42
key=A#3
lovel=0
offset=144
sample=Trombone_staccato_PP_A#2_RR1.opus
tune=+14
</region>

<region>
hivel=42
key=A#2
lovel=0
offset=3446
sample=Trombone_staccato_PP_A#1_RR1.opus
tune=-9
</region>

<region>
hivel=86
key=G4
lovel=43
offset=103
sample=Trombone_staccato_MF_G3_RR1.opus
tune=-19
</region>

<region>
hivel=86
key=G3
lovel=43
sample=Trombone_staccato_MF_G2_RR1.opus
tune=-8
</region>

<region>
hivel=86
key=G2
lovel=43
offset=1019
sample=Trombone_staccato_MF_G1_RR1.opus
tune=-25
</region>

<region>
hivel=86
key=G#4
lovel=43
offset=748
sample=Trombone_staccato_MF_G#3_RR1.opus
tune=-26
</region>

<region>
hivel=86
key=G#3
lovel=43
offset=690
sample=Trombone_staccato_MF_G#2_RR1.opus
tune=+2
</region>

<region>
hivel=86
key=G#2
lovel=43
offset=1340
sample=Trombone_staccato_MF_G#1_RR1.opus
tune=-35
</region>

<region>
hivel=86
key=F4
lovel=43
offset=781
sample=Trombone_staccato_MF_F3_RR1.opus
tune=-17
</region>

<region>
hivel=86
key=F3
lovel=43
offset=1103
sample=Trombone_staccato_MF_F2_RR1.opus
tune=-32
</region>

<region>
hivel=86
key=F2
lovel=43
offset=1811
sample=Trombone_staccato_MF_F1_RR1.opus
tune=-8
</region>

<region>
hivel=86
key=F#4
lovel=43
offset=304
sample=Trombone_staccato_MF_F#3_RR1.opus
tune=-15
</region>

<region>
hivel=86
key=F#3
lovel=43
offset=1122
sample=Trombone_staccato_MF_F#2_RR1.opus
tune=-13
</region>

<region>
hivel=86
key=F#2
lovel=43
offset=2043
sample=Trombone_staccato_MF_F#1_RR1.opus
tune=-26
</region>

<region>
hivel=86
key=E4
lovel=43
offset=787
sample=Trombone_staccato_MF_E3_RR1.opus
tune=-12
</region>

<region>
hivel=86
key=E3
lovel=43
offset=132
sample=Trombone_staccato_MF_E2_RR1.opus
tune=-19
</region>

<region>
hikey=E2
hivel=86
lokey=C1
lovel=43
offset=1818
pitch_keycenter=E2
sample=Trombone_staccato_MF_E1_RR1.opus
tune=-17
</region>

<region>
hivel=86
key=D4
lovel=43
offset=498
sample=Trombone_staccato_MF_D3_RR1.opus
tune=-17
</region>

<region>
hivel=86
key=D3
lovel=43
offset=241
sample=Trombone_staccato_MF_D2_RR1.opus
tune=-12
</region>

<region>
hivel=86
key=D#4
lovel=43
offset=896
sample=Trombone_staccato_MF_D#3_RR1.opus
tune=-17
</region>

<region>
hivel=86
key=D#3
lovel=43
offset=457
sample=Trombone_staccato_MF_D#2_RR1.opus
tune=-28
</region>

<region>
hikey=D#5
hivel=86
lokey=C5
lovel=43
offset=174
pitch_keycenter=C5
sample=Trombone_staccato_MF_C4_RR1.opus
tune=-14
</region>

<region>
hikey=C4
hivel=86
lokey=C4
lovel=43
offset=848
sample=Trombone_staccato_MF_C3_RR1.opus
tune=-6
</region>

<region>
hivel=86
key=C3
lovel=43
offset=910
sample=Trombone_staccato_MF_C2_RR1.opus
</region>

<region>
hivel=86
key=C#4
lovel=43
offset=587
sample=Trombone_staccato_MF_C#3_RR1.opus
tune=-2
</region>

<region>
hivel=86
key=C#3
lovel=43
offset=235
sample=Trombone_staccato_MF_C#2_RR1.opus
tune=-25
</region>

<region>
hivel=86
key=B4
lovel=43
offset=811
sample=Trombone_staccato_MF_B3_RR1.opus
tune=-4
</region>

<region>
hivel=86
key=B3
lovel=43
sample=Trombone_staccato_MF_B2_RR1.opus
tune=-3
</region>

<region>
hivel=86
key=B2
lovel=43
offset=634
sample=Trombone_staccato_MF_B1_RR1.opus
tune=-30
</region>

<region>
hivel=86
key=A4
lovel=43
offset=836
sample=Trombone_staccato_MF_A3_RR1.opus
tune=-20
</region>

<region>
hivel=86
key=A3
lovel=43
sample=Trombone_staccato_MF_A2_RR1.opus
tune=-8
</region>

<region>
hivel=86
key=A2
lovel=43
offset=388
sample=Trombone_staccato_MF_A1_RR1.opus
tune=-30
</region>

<region>
hivel=86
key=A#4
lovel=43
offset=233
sample=Trombone_staccato_MF_A#3_RR1.opus
tune=-13
</region>

<region>
hivel=86
key=A#3
lovel=43
offset=341
sample=Trombone_staccato_MF_A#2_RR1.opus
tune=-10
</region>

<region>
hivel=86
key=A#2
lovel=43
offset=1188
sample=Trombone_staccato_MF_A#1_RR1.opus
tune=-27
</region>

<region>
hivel=127
key=G4
lovel=87
offset=954
sample=Trombone_staccato_FF_G3_RR1.opus
tune=-10
</region>

<region>
hivel=127
key=G3
lovel=87
offset=299
sample=Trombone_staccato_FF_G2_RR1.opus
tune=-2
</region>

<region>
hivel=127
key=G2
lovel=87
offset=501
sample=Trombone_staccato_FF_G1_RR1.opus
tune=-11
</region>

<region>
hivel=127
key=G#4
lovel=87
offset=548
sample=Trombone_staccato_FF_G#3_RR1.opus
tune=-16
</region>

<region>
hivel=127
key=G#3
lovel=87
offset=826
sample=Trombone_staccato_FF_G#2_RR1.opus
tune=-23
</region>

<region>
hivel=127
key=G#2
lovel=87
offset=966
sample=Trombone_staccato_FF_G#1_RR1.opus
tune=-11
</region>

<region>
hivel=127
key=F4
lovel=87
offset=479
sample=Trombone_staccato_FF_F3_RR1.opus
tune=-20
</region>

<region>
hivel=127
key=F3
lovel=87
offset=360
sample=Trombone_staccato_FF_F2_RR1.opus
tune=-10
</region>

<region>
hivel=127
key=F2
lovel=87
offset=175
sample=Trombone_staccato_FF_F1_RR1.opus
</region>

<region>
hivel=127
key=F#4
lovel=87
offset=429
sample=Trombone_staccato_FF_F#3_RR1.opus
tune=-21
</region>

<region>
hivel=127
key=F#3
lovel=87
sample=Trombone_staccato_FF_F#2_RR1.opus
tune=+8
</region>

<region>
hivel=127
key=F#2
lovel=87
offset=461
sample=Trombone_staccato_FF_F#1_RR1.opus
tune=-19
</region>

<region>
hivel=127
key=E4
lovel=87
offset=1117
sample=Trombone_staccato_FF_E3_RR1.opus
tune=-15
</region>

<region>
hivel=127
key=E3
lovel=87
offset=313
sample=Trombone_staccato_FF_E2_RR1.opus
tune=-15
</region>

<region>
hikey=E2
hivel=127
lokey=C1
lovel=87
offset=693
pitch_keycenter=E2
sample=Trombone_staccato_FF_E1_RR1.opus
tune=-17
</region>

<region>
hivel=127
key=D4
lovel=87
offset=192
sample=Trombone_staccato_FF_D3_RR1.opus
tune=+3
</region>

<region>
hivel=127
key=D3
lovel=87
offset=854
sample=Trombone_staccato_FF_D2_RR1.opus
tune=-3
</region>

<region>
hivel=127
key=D#4
lovel=87
offset=478
sample=Trombone_staccato_FF_D#3_RR1.opus
tune=-17
</region>

<region>
hivel=127
key=D#3
lovel=87
sample=Trombone_staccato_FF_D#2_RR1.opus
tune=-12
</region>

<region>
hikey=D#5
hivel=127
lokey=C5
lovel=87
offset=1269
pitch_keycenter=C5
sample=Trombone_staccato_FF_C4_RR1.opus
tune=-22
</region>

<region>
hikey=C4
hivel=127
lokey=C4
lovel=87
offset=294
sample=Trombone_staccato_FF_C3_RR1.opus
tune=-1
</region>

<region>
hivel=127
key=C3
lovel=87
offset=621
sample=Trombone_staccato_FF_C2_RR1.opus
tune=+2
</region>

<region>
hivel=127
key=C#4
lovel=87
offset=432
sample=Trombone_staccato_FF_C#3_RR1.opus
tune=+5
</region>

<region>
hivel=127
key=C#3
lovel=87
offset=253
sample=Trombone_staccato_FF_C#2_RR1.opus
tune=-7
</region>

<region>
hivel=127
key=B4
lovel=87
offset=1589
sample=Trombone_staccato_FF_B3_RR1.opus
tune=-10
</region>

<region>
hivel=127
key=B3
lovel=87
offset=526
sample=Trombone_staccato_FF_B2_RR1.opus
tune=+3
</region>

<region>
hivel=127
key=B2
lovel=87
offset=698
sample=Trombone_staccato_FF_B1_RR1.opus
tune=-6
</region>

<region>
hivel=127
key=A4
lovel=87
offset=886
sample=Trombone_staccato_FF_A3_RR1.opus
tune=-13
</region>

<region>
hivel=127
key=A3
lovel=87
offset=673
sample=Trombone_staccato_FF_A2_RR1.opus
tune=-8
</region>

<region>
hivel=127
key=A2
lovel=87
offset=410
sample=Trombone_staccato_FF_A1_RR1.opus
tune=-12
</region>

<region>
hivel=127
key=A#4
lovel=87
offset=335
sample=Trombone_staccato_FF_A#3_RR1.opus
tune=-7
</region>

<region>
hivel=127
key=A#3
lovel=87
offset=363
sample=Trombone_staccato_FF_A#2_RR1.opus
tune=-1
</region>

<region>
hivel=127
key=A#2
lovel=87
offset=354
sample=Trombone_staccato_FF_A#1_RR1.opus
tune=-19
</region>
</group>

<group>
group_label=RR2
seq_length=4
seq_position=2

<region>
hivel=42
key=G4
lovel=0
offset=6115
sample=Trombone_staccato_PP_G3_RR2.opus
tune=-23
</region>

<region>
hivel=42
key=G3
lovel=0
offset=5776
sample=Trombone_staccato_PP_G2_RR2.opus
tune=-13
</region>

<region>
hivel=42
key=G2
lovel=0
offset=934
sample=Trombone_staccato_PP_G1_RR2.opus
tune=-9
</region>

<region>
hivel=42
key=G#4
lovel=0
offset=7496
sample=Trombone_staccato_PP_G#3_RR2.opus
tune=-32
</region>

<region>
hivel=42
key=G#3
lovel=0
offset=5362
sample=Trombone_staccato_PP_G#2_RR2.opus
tune=-8
</region>

<region>
hivel=42
key=G#2
lovel=0
offset=2888
sample=Trombone_staccato_PP_G#1_RR2.opus
tune=-15
</region>

<region>
hivel=42
key=F4
lovel=0
offset=803
sample=Trombone_staccato_PP_F3_RR2.opus
tune=-33
</region>

<region>
hivel=42
key=F3
lovel=0
offset=2867
sample=Trombone_staccato_PP_F2_RR2.opus
tune=-15
</region>

<region>
hivel=42
key=F2
lovel=0
offset=2152
sample=Trombone_staccato_PP_F1_RR2.opus
tune=-8
</region>

<region>
hivel=42
key=F#4
lovel=0
offset=183
sample=Trombone_staccato_PP_F#3_RR2.opus
tune=-41
</region>

<region>
hivel=42
key=F#3
lovel=0
offset=4809
sample=Trombone_staccato_PP_F#2_RR2.opus
tune=-2
</region>

<region>
hivel=42
key=F#2
lovel=0
offset=5645
sample=Trombone_staccato_PP_F#1_RR2.opus
tune=-8
</region>

<region>
hivel=42
key=E4
lovel=0
offset=7067
sample=Trombone_staccato_PP_E3_RR2.opus
tune=-16
</region>

<region>
hivel=42
key=E3
lovel=0
offset=1136
sample=Trombone_staccato_PP_E2_RR2.opus
tune=-20
</region>

<region>
hikey=E2
hivel=42
lokey=C1
lovel=0
offset=6648
pitch_keycenter=E2
sample=Trombone_staccato_PP_E1_RR2.opus
tune=-16
</region>

<region>
hivel=42
key=D4
lovel=0
offset=707
sample=Trombone_staccato_PP_D3_RR2.opus
tune=-25
</region>

<region>
hivel=42
key=D3
lovel=0
offset=3601
sample=Trombone_staccato_PP_D2_RR2.opus
tune=-16
</region>

<region>
hivel=42
key=D#4
lovel=0
offset=10451
sample=Trombone_staccato_PP_D#3_RR2.opus
tune=-33
</region>

<region>
hivel=42
key=D#3
lovel=0
offset=6262
sample=Trombone_staccato_PP_D#2_RR2.opus
tune=+2
</region>

<region>
hikey=D#5
hivel=42
lokey=C5
lovel=0
offset=419
pitch_keycenter=C5
sample=Trombone_staccato_PP_C4_RR2.opus
tune=-25
</region>

<region>
hikey=C4
hivel=42
lokey=C4
lovel=0
offset=7723
sample=Trombone_staccato_PP_C3_RR2.opus
tune=-20
</region>

<region>
hivel=42
key=C3
lovel=0
offset=4646
sample=Trombone_staccato_PP_C2_RR2.opus
tune=+19
</region>

<region>
hivel=42
key=C#4
lovel=0
offset=1508
sample=Trombone_staccato_PP_C#3_RR2.opus
tune=-16
</region>

<region>
hivel=42
key=C#3
lovel=0
offset=3717
sample=Trombone_staccato_PP_C#2_RR2.opus
tune=-2
</region>

<region>
hivel=42
key=B4
lovel=0
sample=Trombone_staccato_PP_B3_RR2.opus
tune=-26
</region>

<region>
hivel=42
key=B3
lovel=0
offset=478
sample=Trombone_staccato_PP_B2_RR2.opus
tune=+3
</region>

<region>
hivel=42
key=B2
lovel=0
offset=5459
sample=Trombone_staccato_PP_B1_RR2.opus
tune=-3
</region>

<region>
hivel=42
key=A4
lovel=0
sample=Trombone_staccato_PP_A3_RR2.opus
tune=-18
</region>

<region>
hivel=42
key=A3
lovel=0
offset=7017
sample=Trombone_staccato_PP_A2_RR2.opus
tune=-6
</region>

<region>
hivel=42
key=A2
lovel=0
offset=2477
sample=Trombone_staccato_PP_A1_RR2.opus
tune=-6
</region>

<region>
hivel=42
key=A#4
lovel=0
offset=8525
sample=Trombone_staccato_PP_A#3_RR2.opus
tune=-26
</region>

<region>
hivel=42
key=A#3
lovel=0
offset=342
sample=Trombone_staccato_PP_A#2_RR2.opus
tune=+6
</region>

<region>
hivel=42
key=A#2
lovel=0
offset=5932
sample=Trombone_staccato_PP_A#1_RR2.opus
tune=+1
</region>

<region>
hivel=86
key=G4
lovel=43
offset=38
sample=Trombone_staccato_MF_G3_RR2.opus
tune=-15
</region>

<region>
hivel=86
key=G3
lovel=43
offset=17
sample=Trombone_staccato_MF_G2_RR2.opus
tune=-7
</region>

<region>
hivel=86
key=G2
lovel=43
offset=1353
sample=Trombone_staccato_MF_G1_RR2.opus
tune=-28
</region>

<region>
hivel=86
key=G#4
lovel=43
offset=796
sample=Trombone_staccato_MF_G#3_RR2.opus
tune=-31
</region>

<region>
hivel=86
key=G#3
lovel=43
offset=480
sample=Trombone_staccato_MF_G#2_RR2.opus
</region>

<region>
hivel=86
key=G#2
lovel=43
offset=2213
sample=Trombone_staccato_MF_G#1_RR2.opus
tune=-39
</region>

<region>
hivel=86
key=F4
lovel=43
offset=1048
sample=Trombone_staccato_MF_F3_RR2.opus
tune=-17
</region>

<region>
hivel=86
key=F3
lovel=43
sample=Trombone_staccato_MF_F2_RR2.opus
tune=-30
</region>

<region>
hivel=86
key=F2
lovel=43
offset=6314
sample=Trombone_staccato_MF_F1_RR2.opus
tune=-13
</region>

<region>
hivel=86
key=F#4
lovel=43
offset=412
sample=Trombone_staccato_MF_F#3_RR2.opus
tune=-19
</region>

<region>
hivel=86
key=F#3
lovel=43
offset=795
sample=Trombone_staccato_MF_F#2_RR2.opus
tune=-16
</region>

<region>
hivel=86
key=F#2
lovel=43
offset=6386
sample=Trombone_staccato_MF_F#1_RR2.opus
tune=-33
</region>

<region>
hivel=86
key=E4
lovel=43
offset=8260
sample=Trombone_staccato_MF_E3_RR2.opus
tune=-16
</region>

<region>
hivel=86
key=E3
lovel=43
offset=6298
sample=Trombone_staccato_MF_E2_RR2.opus
tune=-21
</region>

<region>
hikey=E2
hivel=86
lokey=C1
lovel=43
offset=1280
pitch_keycenter=E2
sample=Trombone_staccato_MF_E1_RR2.opus
tune=-24
</region>

<region>
hivel=86
key=D4
lovel=43
offset=214
sample=Trombone_staccato_MF_D3_RR2.opus
tune=-18
</region>

<region>
hivel=86
key=D3
lovel=43
offset=835
sample=Trombone_staccato_MF_D2_RR2.opus
tune=-18
</region>

<region>
hivel=86
key=D#4
lovel=43
offset=7942
sample=Trombone_staccato_MF_D#3_RR2.opus
tune=-24
</region>

<region>
hivel=86
key=D#3
lovel=43
offset=788
sample=Trombone_staccato_MF_D#2_RR2.opus
tune=-30
</region>

<region>
hikey=D#5
hivel=86
lokey=C5
lovel=43
offset=6718
pitch_keycenter=C5
sample=Trombone_staccato_MF_C4_RR2.opus
tune=-15
</region>

<region>
hikey=C4
hivel=86
lokey=C4
lovel=43
offset=7989
sample=Trombone_staccato_MF_C3_RR2.opus
tune=-9
</region>

<region>
hivel=86
key=C3
lovel=43
offset=617
sample=Trombone_staccato_MF_C2_RR2.opus
tune=-4
</region>

<region>
hivel=86
key=C#4
lovel=43
offset=9922
sample=Trombone_staccato_MF_C#3_RR2.opus
tune=-4
</region>

<region>
hivel=86
key=C#3
lovel=43
offset=7328
sample=Trombone_staccato_MF_C#2_RR2.opus
tune=-24
</region>

<region>
hivel=86
key=B4
lovel=43
offset=463
sample=Trombone_staccato_MF_B3_RR2.opus
tune=-17
</region>

<region>
hivel=86
key=B3
lovel=43
offset=7322
sample=Trombone_staccato_MF_B2_RR2.opus
tune=-3
</region>

<region>
hivel=86
key=B2
lovel=43
offset=4513
sample=Trombone_staccato_MF_B1_RR2.opus
tune=-32
</region>

<region>
hivel=86
key=A4
lovel=43
offset=765
sample=Trombone_staccato_MF_A3_RR2.opus
tune=-25
</region>

<region>
hivel=86
key=A3
lovel=43
sample=Trombone_staccato_MF_A2_RR2.opus
tune=-12
</region>

<region>
hivel=86
key=A2
lovel=43
offset=4500
sample=Trombone_staccato_MF_A1_RR2.opus
tune=-26
</region>

<region>
hivel=86
key=A#4
lovel=43
offset=7210
sample=Trombone_staccato_MF_A#3_RR2.opus
tune=-17
</region>

<region>
hivel=86
key=A#3
lovel=43
offset=54
sample=Trombone_staccato_MF_A#2_RR2.opus
tune=-11
</region>

<region>
hivel=86
key=A#2
lovel=43
offset=355
sample=Trombone_staccato_MF_A#1_RR2.opus
tune=-21
</region>

<region>
hivel=127
key=G4
lovel=87
offset=5949
sample=Trombone_staccato_FF_G3_RR2.opus
tune=-16
</region>

<region>
hivel=127
key=G3
lovel=87
offset=8875
sample=Trombone_staccato_FF_G2_RR2.opus
tune=-5
</region>

<region>
hivel=127
key=G2
lovel=87
offset=503
sample=Trombone_staccato_FF_G1_RR2.opus
tune=-16
</region>

<region>
hivel=127
key=G#4
lovel=87
offset=6583
sample=Trombone_staccato_FF_G#3_RR2.opus
tune=-20
</region>

<region>
hivel=127
key=G#3
lovel=87
offset=596
sample=Trombone_staccato_FF_G#2_RR2.opus
tune=-27
</region>

<region>
hivel=127
key=G#2
lovel=87
offset=464
sample=Trombone_staccato_FF_G#1_RR2.opus
tune=-21
</region>

<region>
hivel=127
key=F4
lovel=87
offset=9331
sample=Trombone_staccato_FF_F3_RR2.opus
tune=-22
</region>

<region>
hivel=127
key=F3
lovel=87
offset=355
sample=Trombone_staccato_FF_F2_RR2.opus
tune=-10
</region>

<region>
hivel=127
key=F2
lovel=87
offset=615
sample=Trombone_staccato_FF_F1_RR2.opus
tune=-2
</region>

<region>
hivel=127
key=F#4
lovel=87
offset=410
sample=Trombone_staccato_FF_F#3_RR2.opus
tune=-19
</region>

<region>
hivel=127
key=F#3
lovel=87
sample=Trombone_staccato_FF_F#2_RR2.opus
tune=-1
</region>

<region>
hivel=127
key=F#2
lovel=87
offset=3768
sample=Trombone_staccato_FF_F#1_RR2.opus
tune=-20
</region>

<region>
hivel=127
key=E4
lovel=87
offset=1029
sample=Trombone_staccato_FF_E3_RR2.opus
tune=-16
</region>

<region>
hivel=127
key=E3
lovel=87
offset=582
sample=Trombone_staccato_FF_E2_RR2.opus
tune=-14
</region>

<region>
hikey=E2
hivel=127
lokey=C1
lovel=87
offset=8972
pitch_keycenter=E2
sample=Trombone_staccato_FF_E1_RR2.opus
tune=-34
</region>

<region>
hivel=127
key=D4
lovel=87
offset=187
sample=Trombone_staccato_FF_D3_RR2.opus
</region>

<region>
hivel=127
key=D3
lovel=87
offset=186
sample=Trombone_staccato_FF_D2_RR2.opus
tune=-14
</region>

<region>
hivel=127
key=D#4
lovel=87
offset=885
sample=Trombone_staccato_FF_D#3_RR2.opus
tune=-23
</region>

<region>
hivel=127
key=D#3
lovel=87
offset=910
sample=Trombone_staccato_FF_D#2_RR2.opus
tune=-17
</region>

<region>
hikey=D#5
hivel=127
lokey=C5
lovel=87
offset=1436
pitch_keycenter=C5
sample=Trombone_staccato_FF_C4_RR2.opus
tune=-21
</region>

<region>
hikey=C4
hivel=127
lokey=C4
lovel=87
offset=553
sample=Trombone_staccato_FF_C3_RR2.opus
tune=-3
</region>

<region>
hivel=127
key=C3
lovel=87
offset=621
sample=Trombone_staccato_FF_C2_RR2.opus
tune=-3
</region>

<region>
hivel=127
key=C#4
lovel=87
offset=433
sample=Trombone_staccato_FF_C#3_RR2.opus
tune=+4
</region>

<region>
hivel=127
key=C#3
lovel=87
offset=561
sample=Trombone_staccato_FF_C#2_RR2.opus
tune=-6
</region>

<region>
hivel=127
key=B4
lovel=87
offset=1004
sample=Trombone_staccato_FF_B3_RR2.opus
tune=-14
</region>

<region>
hivel=127
key=B3
lovel=87
offset=7063
sample=Trombone_staccato_FF_B2_RR2.opus
tune=+1
</region>

<region>
hivel=127
key=B2
lovel=87
offset=1041
sample=Trombone_staccato_FF_B1_RR2.opus
tune=-16
</region>

<region>
hivel=127
key=A4
lovel=87
offset=1036
sample=Trombone_staccato_FF_A3_RR2.opus
tune=-19
</region>

<region>
hivel=127
key=A3
lovel=87
offset=956
sample=Trombone_staccato_FF_A2_RR2.opus
tune=-7
</region>

<region>
hivel=127
key=A2
lovel=87
offset=373
sample=Trombone_staccato_FF_A1_RR2.opus
tune=-16
</region>

<region>
hivel=127
key=A#4
lovel=87
offset=458
sample=Trombone_staccato_FF_A#3_RR2.opus
tune=-9
</region>

<region>
hivel=127
key=A#3
lovel=87
sample=Trombone_staccato_FF_A#2_RR2.opus
tune=-6
</region>

<region>
hivel=127
key=A#2
lovel=87
offset=353
sample=Trombone_staccato_FF_A#1_RR2.opus
tune=-19
</region>
</group>

<group>
group_label=RR3
seq_length=4
seq_position=3

<region>
hivel=42
key=G4
lovel=0
sample=Trombone_staccato_PP_G3_RR3.opus
tune=-26
</region>

<region>
hivel=42
key=G3
lovel=0
offset=8704
sample=Trombone_staccato_PP_G2_RR3.opus
tune=-10
</region>

<region>
hivel=42
key=G2
lovel=0
offset=7559
sample=Trombone_staccato_PP_G1_RR3.opus
tune=-1
</region>

<region>
hivel=42
key=G#4
lovel=0
offset=1227
sample=Trombone_staccato_PP_G#3_RR3.opus
tune=-37
</region>

<region>
hivel=42
key=G#3
lovel=0
offset=5943
sample=Trombone_staccato_PP_G#2_RR3.opus
tune=-7
</region>

<region>
hivel=42
key=G#2
lovel=0
offset=5023
sample=Trombone_staccato_PP_G#1_RR3.opus
tune=-20
</region>

<region>
hivel=42
key=F4
lovel=0
offset=6404
sample=Trombone_staccato_PP_F3_RR3.opus
tune=-36
</region>

<region>
hivel=42
key=F3
lovel=0
offset=7423
sample=Trombone_staccato_PP_F2_RR3.opus
tune=-9
</region>

<region>
hivel=42
key=F2
lovel=0
offset=1754
sample=Trombone_staccato_PP_F1_RR3.opus
tune=-7
</region>

<region>
hivel=42
key=F#4
lovel=0
offset=3847
sample=Trombone_staccato_PP_F#3_RR3.opus
tune=-39
</region>

<region>
hivel=42
key=F#3
lovel=0
offset=6597
sample=Trombone_staccato_PP_F#2_RR3.opus
tune=-3
</region>

<region>
hivel=42
key=F#2
lovel=0
offset=6741
sample=Trombone_staccato_PP_F#1_RR3.opus
tune=-10
</region>

<region>
hivel=42
key=E4
lovel=0
offset=6148
sample=Trombone_staccato_PP_E3_RR3.opus
tune=-17
</region>

<region>
hivel=42
key=E3
lovel=0
offset=2590
sample=Trombone_staccato_PP_E2_RR3.opus
tune=-21
</region>

<region>
hikey=E2
hivel=42
lokey=C1
lovel=0
offset=5957
pitch_keycenter=E2
sample=Trombone_staccato_PP_E1_RR3.opus
tune=-13
</region>

<region>
hivel=42
key=D4
lovel=0
offset=8903
sample=Trombone_staccato_PP_D3_RR3.opus
tune=-22
</region>

<region>
hivel=42
key=D3
lovel=0
offset=1829
sample=Trombone_staccato_PP_D2_RR3.opus
tune=-18
</region>

<region>
hivel=42
key=D#4
lovel=0
offset=7238
sample=Trombone_staccato_PP_D#3_RR3.opus
tune=-35
</region>

<region>
hivel=42
key=D#3
lovel=0
offset=4246
sample=Trombone_staccato_PP_D#2_RR3.opus
tune=+14
</region>

<region>
hikey=D#5
hivel=42
lokey=C5
lovel=0
pitch_keycenter=C5
sample=Trombone_staccato_PP_C4_RR3.opus
tune=-22
</region>

<region>
hikey=C4
hivel=42
lokey=C4
lovel=0
offset=7047
sample=Trombone_staccato_PP_C3_RR3.opus
tune=-16
</region>

<region>
hivel=42
key=C3
lovel=0
offset=2460
sample=Trombone_staccato_PP_C2_RR3.opus
tune=+16
</region>

<region>
hivel=42
key=C#4
lovel=0
offset=480
sample=Trombone_staccato_PP_C#3_RR3.opus
tune=-19
</region>

<region>
hivel=42
key=C#3
lovel=0
offset=4196
sample=Trombone_staccato_PP_C#2_RR3.opus
tune=-2
</region>

<region>
hivel=42
key=B4
lovel=0
offset=290
sample=Trombone_staccato_PP_B3_RR3.opus
tune=-25
</region>

<region>
hivel=42
key=B3
lovel=0
offset=6987
sample=Trombone_staccato_PP_B2_RR3.opus
tune=-5
</region>

<region>
hivel=42
key=B2
lovel=0
offset=6688
sample=Trombone_staccato_PP_B1_RR3.opus
tune=-5
</region>

<region>
hivel=42
key=A4
lovel=0
sample=Trombone_staccato_PP_A3_RR3.opus
tune=-21
</region>

<region>
hivel=42
key=A3
lovel=0
offset=310
sample=Trombone_staccato_PP_A2_RR3.opus
tune=-1
</region>

<region>
hivel=42
key=A2
lovel=0
offset=3542
sample=Trombone_staccato_PP_A1_RR3.opus
tune=-8
</region>

<region>
hivel=42
key=A#4
lovel=0
offset=401
sample=Trombone_staccato_PP_A#3_RR3.opus
tune=-28
</region>

<region>
hivel=42
key=A#3
lovel=0
offset=9600
sample=Trombone_staccato_PP_A#2_RR3.opus
tune=+4
</region>

<region>
hivel=42
key=A#2
lovel=0
offset=2057
sample=Trombone_staccato_PP_A#1_RR3.opus
tune=-6
</region>

<region>
hivel=86
key=G4
lovel=43
offset=111
sample=Trombone_staccato_MF_G3_RR3.opus
tune=-17
</region>

<region>
hivel=86
key=G3
lovel=43
offset=6889
sample=Trombone_staccato_MF_G2_RR3.opus
tune=-17
</region>

<region>
hivel=86
key=G2
lovel=43
offset=1375
sample=Trombone_staccato_MF_G1_RR3.opus
tune=-30
</region>

<region>
hivel=86
key=G#4
lovel=43
offset=823
sample=Trombone_staccato_MF_G#3_RR3.opus
tune=-30
</region>

<region>
hivel=86
key=G#3
lovel=43
offset=272
sample=Trombone_staccato_MF_G#2_RR3.opus
tune=-7
</region>

<region>
hivel=86
key=G#2
lovel=43
offset=3635
sample=Trombone_staccato_MF_G#1_RR3.opus
tune=-44
</region>

<region>
hivel=86
key=F4
lovel=43
offset=7740
sample=Trombone_staccato_MF_F3_RR3.opus
tune=-21
</region>

<region>
hivel=86
key=F3
lovel=43
offset=5979
sample=Trombone_staccato_MF_F2_RR3.opus
tune=-26
</region>

<region>
hivel=86
key=F2
lovel=43
offset=9005
sample=Trombone_staccato_MF_F1_RR3.opus
tune=-10
</region>

<region>
hivel=86
key=F#4
lovel=43
offset=331
sample=Trombone_staccato_MF_F#3_RR3.opus
tune=-17
</region>

<region>
hivel=86
key=F#3
lovel=43
offset=6168
sample=Trombone_staccato_MF_F#2_RR3.opus
tune=-14
</region>

<region>
hivel=86
key=F#2
lovel=43
offset=3855
sample=Trombone_staccato_MF_F#1_RR3.opus
tune=-30
</region>

<region>
hivel=86
key=E4
lovel=43
offset=5875
sample=Trombone_staccato_MF_E3_RR3.opus
tune=-19
</region>

<region>
hivel=86
key=E3
lovel=43
offset=6013
sample=Trombone_staccato_MF_E2_RR3.opus
tune=-14
</region>

<region>
hikey=E2
hivel=86
lokey=C1
lovel=43
offset=5688
pitch_keycenter=E2
sample=Trombone_staccato_MF_E1_RR3.opus
tune=-22
</region>

<region>
hivel=86
key=D4
lovel=43
offset=377
sample=Trombone_staccato_MF_D3_RR3.opus
tune=-23
</region>

<region>
hivel=86
key=D3
lovel=43
offset=1092
sample=Trombone_staccato_MF_D2_RR3.opus
tune=-12
</region>

<region>
hivel=86
key=D#4
lovel=43
offset=977
sample=Trombone_staccato_MF_D#3_RR3.opus
tune=-28
</region>

<region>
hivel=86
key=D#3
lovel=43
offset=1941
sample=Trombone_staccato_MF_D#2_RR3.opus
tune=-30
</region>

<region>
hikey=D#5
hivel=86
lokey=C5
lovel=43
offset=7847
pitch_keycenter=C5
sample=Trombone_staccato_MF_C4_RR3.opus
tune=-16
</region>

<region>
hikey=C4
hivel=86
lokey=C4
lovel=43
offset=7770
sample=Trombone_staccato_MF_C3_RR3.opus
tune=-5
</region>

<region>
hivel=86
key=C3
lovel=43
offset=4125
sample=Trombone_staccato_MF_C2_RR3.opus
tune=-6
</region>

<region>
hivel=86
key=C#4
lovel=43
offset=7065
sample=Trombone_staccato_MF_C#3_RR3.opus
tune=-11
</region>

<region>
hivel=86
key=C#3
lovel=43
offset=4558
sample=Trombone_staccato_MF_C#2_RR3.opus
tune=-31
</region>

<region>
hivel=86
key=B4
lovel=43
offset=196
sample=Trombone_staccato_MF_B3_RR3.opus
tune=-16
</region>

<region>
hivel=86
key=B3
lovel=43
offset=703
sample=Trombone_staccato_MF_B2_RR3.opus
tune=-9
</region>

<region>
hivel=86
key=B2
lovel=43
offset=4901
sample=Trombone_staccato_MF_B1_RR3.opus
tune=-35
</region>

<region>
hivel=86
key=A4
lovel=43
offset=473
sample=Trombone_staccato_MF_A3_RR3.opus
tune=-24
</region>

<region>
hivel=86
key=A3
lovel=43
offset=317
sample=Trombone_staccato_MF_A2_RR3.opus
tune=-14
</region>

<region>
hivel=86
key=A2
lovel=43
offset=4844
sample=Trombone_staccato_MF_A1_RR3.opus
tune=-26
</region>

<region>
hivel=86
key=A#4
lovel=43
offset=5438
sample=Trombone_staccato_MF_A#3_RR3.opus
tune=-18
</region>

<region>
hivel=86
key=A#3
lovel=43
offset=342
sample=Trombone_staccato_MF_A#2_RR3.opus
tune=-10
</region>

<region>
hivel=86
key=A#2
lovel=43
offset=3790
sample=Trombone_staccato_MF_A#1_RR3.opus
tune=-21
</region>

<region>
hivel=127
key=G4
lovel=87
offset=804
sample=Trombone_staccato_FF_G3_RR3.opus
tune=-16
</region>

<region>
hivel=127
key=G3
lovel=87
offset=5597
sample=Trombone_staccato_FF_G2_RR3.opus
tune=-10
</region>

<region>
hivel=127
key=G2
lovel=87
offset=871
sample=Trombone_staccato_FF_G1_RR3.opus
tune=-21
</region>

<region>
hivel=127
key=G#4
lovel=87
offset=5045
sample=Trombone_staccato_FF_G#3_RR3.opus
tune=-20
</region>

<region>
hivel=127
key=G#3
lovel=87
offset=467
sample=Trombone_staccato_FF_G#2_RR3.opus
tune=-25
</region>

<region>
hivel=127
key=G#2
lovel=87
offset=454
sample=Trombone_staccato_FF_G#1_RR3.opus
tune=-19
</region>

<region>
hivel=127
key=F4
lovel=87
offset=7412
sample=Trombone_staccato_FF_F3_RR3.opus
tune=-21
</region>

<region>
hivel=127
key=F3
lovel=87
offset=343
sample=Trombone_staccato_FF_F2_RR3.opus
tune=-14
</region>

<region>
hivel=127
key=F2
lovel=87
offset=171
sample=Trombone_staccato_FF_F1_RR3.opus
tune=-1
</region>

<region>
hivel=127
key=F#4
lovel=87
offset=429
sample=Trombone_staccato_FF_F#3_RR3.opus
tune=-21
</region>

<region>
hivel=127
key=F#3
lovel=87
sample=Trombone_staccato_FF_F#2_RR3.opus
</region>

<region>
hivel=127
key=F#2
lovel=87
offset=5197
sample=Trombone_staccato_FF_F#1_RR3.opus
tune=-24
</region>

<region>
hivel=127
key=E4
lovel=87
offset=724
sample=Trombone_staccato_FF_E3_RR3.opus
tune=-17
</region>

<region>
hivel=127
key=E3
lovel=87
offset=130
sample=Trombone_staccato_FF_E2_RR3.opus
tune=-13
</region>

<region>
hikey=E2
hivel=127
lokey=C1
lovel=87
offset=7429
pitch_keycenter=E2
sample=Trombone_staccato_FF_E1_RR3.opus
tune=-33
</region>

<region>
hivel=127
key=D4
lovel=87
offset=202
sample=Trombone_staccato_FF_D3_RR3.opus
tune=+1
</region>

<region>
hivel=127
key=D3
lovel=87
offset=531
sample=Trombone_staccato_FF_D2_RR3.opus
tune=-2
</region>

<region>
hivel=127
key=D#4
lovel=87
offset=6582
sample=Trombone_staccato_FF_D#3_RR3.opus
tune=-18
</region>

<region>
hivel=127
key=D#3
lovel=87
sample=Trombone_staccato_FF_D#2_RR3.opus
tune=-14
</region>

<region>
hikey=D#5
hivel=127
lokey=C5
lovel=87
offset=1343
pitch_keycenter=C5
sample=Trombone_staccato_FF_C4_RR3.opus
tune=-16
</region>

<region>
hikey=C4
hivel=127
lokey=C4
lovel=87
offset=550
sample=Trombone_staccato_FF_C3_RR3.opus
tune=-4
</region>

<region>
hivel=127
key=C3
lovel=87
offset=619
sample=Trombone_staccato_FF_C2_RR3.opus
tune=+9
</region>

<region>
hivel=127
key=C#4
lovel=87
offset=434
sample=Trombone_staccato_FF_C#3_RR3.opus
tune=+5
</region>

<region>
hivel=127
key=C#3
lovel=87
sample=Trombone_staccato_FF_C#2_RR3.opus
tune=-9
</region>

<region>
hivel=127
key=B4
lovel=87
offset=1185
sample=Trombone_staccato_FF_B3_RR3.opus
tune=-13
</region>

<region>
hivel=127
key=B3
lovel=87
offset=5545
sample=Trombone_staccato_FF_B2_RR3.opus
tune=-9
</region>

<region>
hivel=127
key=B2
lovel=87
offset=1042
sample=Trombone_staccato_FF_B1_RR3.opus
tune=-17
</region>

<region>
hivel=127
key=A4
lovel=87
offset=1037
sample=Trombone_staccato_FF_A3_RR3.opus
tune=-11
</region>

<region>
hivel=127
key=A3
lovel=87
offset=632
sample=Trombone_staccato_FF_A2_RR3.opus
tune=-6
</region>

<region>
hivel=127
key=A2
lovel=87
offset=392
sample=Trombone_staccato_FF_A1_RR3.opus
tune=-14
</region>

<region>
hivel=127
key=A#4
lovel=87
offset=772
sample=Trombone_staccato_FF_A#3_RR3.opus
tune=-8
</region>

<region>
hivel=127
key=A#3
lovel=87
offset=759
sample=Trombone_staccato_FF_A#2_RR3.opus
tune=-2
</region>

<region>
hivel=127
key=A#2
lovel=87
offset=355
sample=Trombone_staccato_FF_A#1_RR3.opus
tune=-19
</region>
</group>

<group>
group_label=RR4
seq_length=4
seq_position=4

<region>
hivel=42
key=G4
lovel=0
offset=7134
sample=Trombone_staccato_PP_G3_RR4.opus
tune=-22
</region>

<region>
hivel=42
key=G3
lovel=0
offset=6884
sample=Trombone_staccato_PP_G2_RR4.opus
tune=-17
</region>

<region>
hivel=42
key=G2
lovel=0
offset=7523
sample=Trombone_staccato_PP_G1_RR4.opus
tune=-6
</region>

<region>
hivel=42
key=G#4
lovel=0
offset=6553
sample=Trombone_staccato_PP_G#3_RR4.opus
tune=-37
</region>

<region>
hivel=42
key=G#3
lovel=0
offset=1774
sample=Trombone_staccato_PP_G#2_RR4.opus
tune=-9
</region>

<region>
hivel=42
key=G#2
lovel=0
offset=5298
sample=Trombone_staccato_PP_G#1_RR4.opus
tune=-9
</region>

<region>
hivel=42
key=F4
lovel=0
offset=6312
sample=Trombone_staccato_PP_F3_RR4.opus
tune=-33
</region>

<region>
hivel=42
key=F3
lovel=0
offset=6149
sample=Trombone_staccato_PP_F2_RR4.opus
tune=-15
</region>

<region>
hivel=42
key=F2
lovel=0
offset=8288
sample=Trombone_staccato_PP_F1_RR4.opus
tune=-17
</region>

<region>
hivel=42
key=F#4
lovel=0
offset=4448
sample=Trombone_staccato_PP_F#3_RR4.opus
tune=-36
</region>

<region>
hivel=42
key=F#3
lovel=0
offset=8457
sample=Trombone_staccato_PP_F#2_RR4.opus
tune=+3
</region>

<region>
hivel=42
key=F#2
lovel=0
offset=7221
sample=Trombone_staccato_PP_F#1_RR4.opus
tune=-6
</region>

<region>
hivel=42
key=E4
lovel=0
offset=6125
sample=Trombone_staccato_PP_E3_RR4.opus
tune=-16
</region>

<region>
hivel=42
key=E3
lovel=0
offset=2057
sample=Trombone_staccato_PP_E2_RR4.opus
tune=-13
</region>

<region>
hikey=E2
hivel=42
lokey=C1
lovel=0
offset=7871
pitch_keycenter=E2
sample=Trombone_staccato_PP_E1_RR4.opus
tune=-17
</region>

<region>
hivel=42
key=D4
lovel=0
offset=7152
sample=Trombone_staccato_PP_D3_RR4.opus
tune=-23
</region>

<region>
hivel=42
key=D3
lovel=0
offset=2647
sample=Trombone_staccato_PP_D2_RR4.opus
tune=-20
</region>

<region>
hivel=42
key=D#4
lovel=0
offset=10485
sample=Trombone_staccato_PP_D#3_RR4.opus
tune=-35
</region>

<region>
hivel=42
key=D#3
lovel=0
offset=5646
sample=Trombone_staccato_PP_D#2_RR4.opus
tune=+10
</region>

<region>
hikey=D#5
hivel=42
lokey=C5
lovel=0
offset=415
pitch_keycenter=C5
sample=Trombone_staccato_PP_C4_RR4.opus
tune=-28
</region>

<region>
hikey=C4
hivel=42
lokey=C4
lovel=0
offset=6127
sample=Trombone_staccato_PP_C3_RR4.opus
tune=-13
</region>

<region>
hivel=42
key=C3
lovel=0
offset=653
sample=Trombone_staccato_PP_C2_RR4.opus
tune=+23
</region>

<region>
hivel=42
key=C#4
lovel=0
offset=68
sample=Trombone_staccato_PP_C#3_RR4.opus
tune=-27
</region>

<region>
hivel=42
key=C#3
lovel=0
offset=5206
sample=Trombone_staccato_PP_C#2_RR4.opus
tune=+4
</region>

<region>
hivel=42
key=B4
lovel=0
offset=9
sample=Trombone_staccato_PP_B3_RR4.opus
tune=-26
</region>

<region>
hivel=42
key=B3
lovel=0
offset=776
sample=Trombone_staccato_PP_B2_RR4.opus
tune=-3
</region>

<region>
hivel=42
key=B2
lovel=0
offset=6593
sample=Trombone_staccato_PP_B1_RR4.opus
tune=-8
</region>

<region>
hivel=42
key=A4
lovel=0
sample=Trombone_staccato_PP_A3_RR4.opus
tune=-21
</region>

<region>
hivel=42
key=A3
lovel=0
offset=1300
sample=Trombone_staccato_PP_A2_RR4.opus
tune=+4
</region>

<region>
hivel=42
key=A2
lovel=0
offset=6113
sample=Trombone_staccato_PP_A1_RR4.opus
tune=-7
</region>

<region>
hivel=42
key=A#4
lovel=0
offset=309
sample=Trombone_staccato_PP_A#3_RR4.opus
tune=-23
</region>

<region>
hivel=42
key=A#3
lovel=0
offset=1481
sample=Trombone_staccato_PP_A#2_RR4.opus
tune=-1
</region>

<region>
hivel=42
key=A#2
lovel=0
offset=4913
sample=Trombone_staccato_PP_A#1_RR4.opus
tune=-11
</region>

<region>
hivel=86
key=G4
lovel=43
offset=155
sample=Trombone_staccato_MF_G3_RR4.opus
tune=-20
</region>

<region>
hivel=86
key=G3
lovel=43
offset=6181
sample=Trombone_staccato_MF_G2_RR4.opus
tune=-12
</region>

<region>
hivel=86
key=G2
lovel=43
offset=535
sample=Trombone_staccato_MF_G1_RR4.opus
tune=-24
</region>

<region>
hivel=86
key=G#4
lovel=43
offset=327
sample=Trombone_staccato_MF_G#3_RR4.opus
tune=-32
</region>

<region>
hivel=86
key=G#3
lovel=43
offset=271
sample=Trombone_staccato_MF_G#2_RR4.opus
tune=-9
</region>

<region>
hivel=86
key=G#2
lovel=43
offset=4543
sample=Trombone_staccato_MF_G#1_RR4.opus
tune=-35
</region>

<region>
hivel=86
key=F4
lovel=43
offset=8271
sample=Trombone_staccato_MF_F3_RR4.opus
tune=-15
</region>

<region>
hivel=86
key=F3
lovel=43
sample=Trombone_staccato_MF_F2_RR4.opus
tune=-21
</region>

<region>
hivel=86
key=F2
lovel=43
offset=7752
sample=Trombone_staccato_MF_F1_RR4.opus
tune=-11
</region>

<region>
hivel=86
key=F#4
lovel=43
offset=410
sample=Trombone_staccato_MF_F#3_RR4.opus
tune=-17
</region>

<region>
hivel=86
key=F#3
lovel=43
offset=7328
sample=Trombone_staccato_MF_F#2_RR4.opus
tune=-12
</region>

<region>
hivel=86
key=F#2
lovel=43
offset=950
sample=Trombone_staccato_MF_F#1_RR4.opus
tune=-24
</region>

<region>
hivel=86
key=E4
lovel=43
offset=96
sample=Trombone_staccato_MF_E3_RR4.opus
tune=-20
</region>

<region>
hivel=86
key=E3
lovel=43
offset=434
sample=Trombone_staccato_MF_E2_RR4.opus
tune=-9
</region>

<region>
hikey=E2
hivel=86
lokey=C1
lovel=43
offset=8523
pitch_keycenter=E2
sample=Trombone_staccato_MF_E1_RR4.opus
tune=-30
</region>

<region>
hivel=86
key=D4
lovel=43
sample=Trombone_staccato_MF_D3_RR4.opus
tune=-21
</region>

<region>
hivel=86
key=D3
lovel=43
offset=7153
sample=Trombone_staccato_MF_D2_RR4.opus
tune=-11
</region>

<region>
hivel=86
key=D#4
lovel=43
offset=1266
sample=Trombone_staccato_MF_D#3_RR4.opus
tune=-31
</region>

<region>
hivel=86
key=D#3
lovel=43
offset=4475
sample=Trombone_staccato_MF_D#2_RR4.opus
tune=-28
</region>

<region>
hikey=D#5
hivel=86
lokey=C5
lovel=43
offset=497
pitch_keycenter=C5
sample=Trombone_staccato_MF_C4_RR4.opus
tune=-23
</region>

<region>
hikey=C4
hivel=86
lokey=C4
lovel=43
offset=7572
sample=Trombone_staccato_MF_C3_RR4.opus
tune=-7
</region>

<region>
hivel=86
key=C3
lovel=43
offset=5078
sample=Trombone_staccato_MF_C2_RR4.opus
tune=-4
</region>

<region>
hivel=86
key=C#4
lovel=43
offset=837
sample=Trombone_staccato_MF_C#3_RR4.opus
tune=-12
</region>

<region>
hivel=86
key=C#3
lovel=43
offset=958
sample=Trombone_staccato_MF_C#2_RR4.opus
tune=-29
</region>

<region>
hivel=86
key=B4
lovel=43
offset=479
sample=Trombone_staccato_MF_B3_RR4.opus
tune=-26
</region>

<region>
hivel=86
key=B3
lovel=43
offset=506
sample=Trombone_staccato_MF_B2_RR4.opus
tune=-5
</region>

<region>
hivel=86
key=B2
lovel=43
offset=5072
sample=Trombone_staccato_MF_B1_RR4.opus
tune=-33
</region>

<region>
hivel=86
key=A4
lovel=43
offset=654
sample=Trombone_staccato_MF_A3_RR4.opus
tune=-25
</region>

<region>
hivel=86
key=A3
lovel=43
sample=Trombone_staccato_MF_A2_RR4.opus
tune=-9
</region>

<region>
hivel=86
key=A2
lovel=43
offset=4354
sample=Trombone_staccato_MF_A1_RR4.opus
tune=-21
</region>

<region>
hivel=86
key=A#4
lovel=43
offset=678
sample=Trombone_staccato_MF_A#3_RR4.opus
tune=-21
</region>

<region>
hivel=86
key=A#3
lovel=43
offset=52
sample=Trombone_staccato_MF_A#2_RR4.opus
tune=-19
</region>

<region>
hivel=86
key=A#2
lovel=43
offset=4983
sample=Trombone_staccato_MF_A#1_RR4.opus
tune=-19
</region>

<region>
hivel=127
key=G4
lovel=87
offset=581
sample=Trombone_staccato_FF_G3_RR4.opus
tune=-18
</region>

<region>
hivel=127
key=G3
lovel=87
offset=5393
sample=Trombone_staccato_FF_G2_RR4.opus
tune=-7
</region>

<region>
hivel=127
key=G2
lovel=87
offset=489
sample=Trombone_staccato_FF_G1_RR4.opus
tune=-24
</region>

<region>
hivel=127
key=G#4
lovel=87
offset=356
sample=Trombone_staccato_FF_G#3_RR4.opus
tune=-23
</region>

<region>
hivel=127
key=G#3
lovel=87
offset=4329
sample=Trombone_staccato_FF_G#2_RR4.opus
tune=-26
</region>

<region>
hivel=127
key=G#2
lovel=87
offset=951
sample=Trombone_staccato_FF_G#1_RR4.opus
tune=-13
</region>

<region>
hivel=127
key=F4
lovel=87
offset=347
sample=Trombone_staccato_FF_F3_RR4.opus
tune=-21
</region>

<region>
hivel=127
key=F3
lovel=87
offset=6026
sample=Trombone_staccato_FF_F2_RR4.opus
tune=-13
</region>

<region>
hivel=127
key=F2
lovel=87
offset=616
sample=Trombone_staccato_FF_F1_RR4.opus
tune=-5
</region>

<region>
hivel=127
key=F#4
lovel=87
offset=341
sample=Trombone_staccato_FF_F#3_RR4.opus
tune=-21
</region>

<region>
hivel=127
key=F#3
lovel=87
offset=42
sample=Trombone_staccato_FF_F#2_RR4.opus
tune=-5
</region>

<region>
hivel=127
key=F#2
lovel=87
offset=5464
sample=Trombone_staccato_FF_F#1_RR4.opus
tune=-25
</region>

<region>
hivel=127
key=E4
lovel=87
offset=1035
sample=Trombone_staccato_FF_E3_RR4.opus
tune=-15
</region>

<region>
hivel=127
key=E3
lovel=87
offset=965
sample=Trombone_staccato_FF_E2_RR4.opus
tune=-16
</region>

<region>
hikey=E2
hivel=127
lokey=C1
lovel=87
offset=6207
pitch_keycenter=E2
sample=Trombone_staccato_FF_E1_RR4.opus
tune=-29
</region>

<region>
hivel=127
key=D4
lovel=87
offset=332
sample=Trombone_staccato_FF_D3_RR4.opus
tune=+5
</region>

<region>
hivel=127
key=D3
lovel=87
offset=521
sample=Trombone_staccato_FF_D2_RR4.opus
tune=-8
</region>

<region>
hivel=127
key=D#4
lovel=87
offset=672
sample=Trombone_staccato_FF_D#3_RR4.opus
tune=-16
</region>

<region>
hivel=127
key=D#3
lovel=87
offset=455
sample=Trombone_staccato_FF_D#2_RR4.opus
tune=-18
</region>

<region>
hikey=D#5
hivel=127
lokey=C5
lovel=87
offset=590
pitch_keycenter=C5
sample=Trombone_staccato_FF_C4_RR4.opus
tune=-15
</region>

<region>
hikey=C4
hivel=127
lokey=C4
lovel=87
offset=87
sample=Trombone_staccato_FF_C3_RR4.opus
tune=-5
</region>

<region>
hivel=127
key=C3
lovel=87
offset=3468
sample=Trombone_staccato_FF_C2_RR4.opus
tune=+6
</region>

<region>
hivel=127
key=C#4
lovel=87
offset=440
sample=Trombone_staccato_FF_C#3_RR4.opus
tune=+9
</region>

<region>
hivel=127
key=C#3
lovel=87
offset=259
sample=Trombone_staccato_FF_C#2_RR4.opus
tune=-12
</region>

<region>
hivel=127
key=B4
lovel=87
offset=1529
sample=Trombone_staccato_FF_B3_RR4.opus
tune=-16
</region>

<region>
hivel=127
key=B3
lovel=87
offset=732
sample=Trombone_staccato_FF_B2_RR4.opus
tune=-5
</region>

<region>
hivel=127
key=B2
lovel=87
offset=791
sample=Trombone_staccato_FF_B1_RR4.opus
tune=-11
</region>

<region>
hivel=127
key=A4
lovel=87
offset=537
sample=Trombone_staccato_FF_A3_RR4.opus
tune=-16
</region>

<region>
hivel=127
key=A3
lovel=87
offset=424
sample=Trombone_staccato_FF_A2_RR4.opus
tune=-4
</region>

<region>
hivel=127
key=A2
lovel=87
offset=390
sample=Trombone_staccato_FF_A1_RR4.opus
tune=-18
</region>

<region>
hivel=127
key=A#4
lovel=87
offset=970
sample=Trombone_staccato_FF_A#3_RR4.opus
tune=-11
</region>

<region>
hivel=127
key=A#3
lovel=87
offset=357
sample=Trombone_staccato_FF_A#2_RR4.opus
tune=-3
</region>

<region>
hivel=127
key=A#2
lovel=87
sample=Trombone_staccato_FF_A#1_RR4.opus
tune=-18
</region>
</group>